<svg width="22" height="22" viewBox="0 0 22 22" fill="none" xmlns="http://www.w3.org/2000/svg">
<path d="M18.0001 11.875H4.00012C3.38762 11.875 3.03762 12.4 3.12512 12.925L4.35012 18.35C4.52512 19.1375 5.22512 19.75 6.10012 19.75H15.8126C16.6876 19.75 17.3876 19.1375 17.5626 18.35L18.7876 12.925C18.9626 12.4 18.5251 11.875 18.0001 11.875ZM10.1251 16.25C10.1251 16.6875 9.77512 17.125 9.25012 17.125C8.72512 17.125 8.37512 16.6875 8.37512 16.25V14.5C8.37512 14.0625 8.72512 13.625 9.25012 13.625C9.77512 13.625 10.1251 14.0625 10.1251 14.5V16.25ZM13.6251 16.25C13.6251 16.6875 13.2751 17.125 12.7501 17.125C12.2251 17.125 11.8751 16.6875 11.8751 16.25V14.5C11.8751 14.0625 12.2251 13.625 12.7501 13.625C13.2751 13.625 13.6251 14.0625 13.6251 14.5V16.25Z" fill="#CA4040"/>
<path d="M18.875 7.5H16.95L15.2875 3.3C14.9375 2.425 13.8875 1.9875 13.0125 2.3375C12.1375 2.6875 11.7 3.7375 12.05 4.6125L13.1875 7.5H8.8125L9.95 4.6125C10.3 3.7375 9.8625 2.6875 8.9875 2.3375C8.1125 1.9875 7.0625 2.425 6.7125 3.3L5.05 7.5H3.125C2.1625 7.5 1.375 8.2875 1.375 9.25V10.125C1.375 10.65 1.725 11 2.25 11H19.75C20.275 11 20.625 10.65 20.625 10.125V9.25C20.625 8.2875 19.8375 7.5 18.875 7.5Z" fill="#CA4040"/>
</svg>
