<svg width="21" height="22" viewBox="0 0 21 22" fill="none" xmlns="http://www.w3.org/2000/svg">
<path d="M3.28125 20.1875C3.1072 20.1875 2.94028 20.1184 2.81721 19.9953C2.69414 19.8722 2.625 19.7053 2.625 19.5312C2.625 19.3572 2.69414 19.1903 2.81721 19.0672C2.94028 18.9441 3.1072 18.875 3.28125 18.875H4.59375V17.5625C4.59348 16.4481 4.90847 15.3565 5.50233 14.4135C6.09619 13.4706 6.94469 12.7149 7.94981 12.2337C8.33044 12.0513 8.53125 11.7389 8.53125 11.4594V10.5406C8.53125 10.2611 8.32913 9.94869 7.94981 9.76625C6.94469 9.2851 6.09619 8.52941 5.50233 7.58648C4.90847 6.64355 4.59348 5.55185 4.59375 4.4375V3.125H3.28125C3.1072 3.125 2.94028 3.05586 2.81721 2.93279C2.69414 2.80972 2.625 2.6428 2.625 2.46875C2.625 2.2947 2.69414 2.12778 2.81721 2.00471C2.94028 1.88164 3.1072 1.8125 3.28125 1.8125H17.7188C17.8928 1.8125 18.0597 1.88164 18.1828 2.00471C18.3059 2.12778 18.375 2.2947 18.375 2.46875C18.375 2.6428 18.3059 2.80972 18.1828 2.93279C18.0597 3.05586 17.8928 3.125 17.7188 3.125H16.4062V4.4375C16.4065 5.55185 16.0915 6.64355 15.4977 7.58648C14.9038 8.52941 14.0553 9.2851 13.0502 9.76625C12.6696 9.94869 12.4688 10.2611 12.4688 10.5406V11.4594C12.4688 11.7389 12.6709 12.0513 13.0502 12.2337C14.0553 12.7149 14.9038 13.4706 15.4977 14.4135C16.0915 15.3565 16.4065 16.4481 16.4062 17.5625V18.875H17.7188C17.8928 18.875 18.0597 18.9441 18.1828 19.0672C18.3059 19.1903 18.375 19.3572 18.375 19.5312C18.375 19.7053 18.3059 19.8722 18.1828 19.9953C18.0597 20.1184 17.8928 20.1875 17.7188 20.1875H3.28125ZM5.90625 3.125V4.4375C5.90625 5.14231 6.06375 5.80906 6.34856 6.40625H14.6514C14.9349 5.80906 15.0938 5.14231 15.0938 4.4375V3.125H5.90625ZM9.84375 11.4594C9.84375 12.3794 9.21637 13.0816 8.51681 13.4176C7.73495 13.7918 7.07491 14.3796 6.61297 15.1131C6.15102 15.8465 5.90601 16.6957 5.90625 17.5625C5.90625 17.5625 7.04287 15.8576 9.84375 15.62V11.4594ZM11.1562 11.4594V15.62C13.9571 15.8576 15.0938 17.5625 15.0938 17.5625C15.094 16.6957 14.849 15.8465 14.387 15.1131C13.9251 14.3796 13.265 13.7918 12.4832 13.4176C11.7836 13.0816 11.1562 12.3794 11.1562 11.4594Z" fill="#6255FA"/>
</svg>
