<svg width="22" height="22" viewBox="0 0 22 22" fill="none" xmlns="http://www.w3.org/2000/svg">
<g clip-path="url(#clip0_1062_3499)">
<path d="M10.7614 10.6668L1.69324 5.89404V16.25C1.69324 16.2935 1.70512 16.3361 1.72758 16.3733C1.75005 16.4105 1.78225 16.4409 1.82072 16.4611L10.7614 21.1668V10.6668Z" fill="#38D6C3"/>
<path d="M11.0001 10.2531L20.0682 5.48033L11.1112 0.766116C11.0769 0.748095 11.0388 0.738678 11.0001 0.738678C10.9613 0.738678 10.9232 0.748095 10.8889 0.766116L1.93188 5.48033L11.0001 10.2531Z" fill="#38D6C3"/>
<path d="M11.2386 10.6667V21.1667L20.1793 16.4611C20.2178 16.4409 20.25 16.4105 20.2725 16.3733C20.2949 16.3361 20.3068 16.2934 20.3068 16.25V5.89404L11.2386 10.6667Z" fill="#38D6C3"/>
</g>
<defs>
<clipPath id="clip0_1062_3499">
<rect width="21" height="21" fill="white" transform="translate(0.5 0.5)"/>
</clipPath>
</defs>
</svg>
