<svg width="32" height="32" viewBox="0 0 32 32" fill="none" xmlns="http://www.w3.org/2000/svg">
<g clip-path="url(#clip0_1386_278)">
<path d="M23.5731 1.78906C28.0371 1.78906 31.656 5.40758 31.656 9.87158C31.656 14.3356 28.0371 17.9549 23.5731 17.9549C22.5832 17.9549 21.6353 17.7768 20.7589 17.451V29.4435C20.7589 29.8672 20.4153 30.2107 19.9916 30.2107C13.9081 30.2107 7.82457 30.2107 1.74104 30.2107C1.31736 30.2107 0.973798 29.8672 0.973798 29.4435V25.8711C0.973798 25.4474 1.31736 25.1042 1.74104 25.1042H5.53644V22.5848C5.53644 22.1611 5.88 21.8175 6.30369 21.8175H10.0991V19.3865C10.0991 18.9629 10.4426 18.6193 10.8663 18.6193H14.6617V16.2526C14.6617 15.8289 15.0053 15.4853 15.429 15.4853H17.7575C16.3538 14.0317 15.4902 12.0524 15.4902 9.87158C15.4902 5.40796 19.1091 1.78906 23.5731 1.78906ZM1.71156 22.5557C1.0698 23.3312 -0.110548 22.3542 0.530837 21.5787C3.39156 18.1155 6.87969 15.2151 10.8059 13.0343L8.88095 12.5188C7.90772 12.2587 8.30268 10.7783 9.27666 11.0383L13.1046 12.0641C13.5131 12.1729 13.7562 12.5932 13.6469 13.0018L12.6212 16.8297C12.3611 17.8033 10.8807 17.408 11.1407 16.4344L11.7182 14.2793C7.89222 16.3777 4.49103 19.1908 1.71156 22.5557ZM16.1962 28.6762H19.2248V17.0198H16.1962V28.6762ZM11.6336 28.6762H14.6617V20.1538H11.6336V28.6762ZM7.07093 28.6762H10.0991V23.352H7.07093V28.6762ZM2.50791 28.6762H5.53644V26.6383H2.50791V28.6762ZM22.8059 4.5553C22.8059 3.54654 24.3403 3.54654 24.3403 4.5553V4.70194C25.6586 5.04739 26.5907 6.2489 26.5907 7.62125C26.5907 8.63039 25.0562 8.63039 25.0562 7.62125C25.0562 7.09325 24.7848 6.62081 24.3403 6.35133V9.20298C27.2895 9.9759 27.3538 14.2513 24.3403 15.0416V15.1879C24.3403 16.197 22.8059 16.197 22.8059 15.1879V15.0416C21.483 14.6946 20.5555 13.4946 20.5555 12.1219C20.5555 11.1128 22.09 11.1128 22.09 12.1219C22.09 12.6435 22.3621 13.1231 22.8059 13.3918V10.5406C19.8446 9.76462 19.8049 5.48884 22.8059 4.70194V4.5553ZM24.3403 10.8524V13.3922C25.2901 12.8166 25.2905 11.4276 24.3403 10.8524ZM22.8059 8.89079V6.35133C21.8655 6.92128 21.8413 8.30648 22.8059 8.89079ZM23.5731 3.32317C19.9565 3.32317 17.0243 6.25495 17.0243 9.87158C17.0243 13.4886 19.9565 16.4204 23.5731 16.4204C27.1897 16.4204 30.1215 13.4886 30.1215 9.87158C30.1215 6.25495 27.1897 3.32317 23.5731 3.32317Z" fill="#EE1616"/>
</g>
<defs>
<clipPath id="clip0_1386_278">
<rect width="31.9997" height="31.9997" fill="white"/>
</clipPath>
</defs>
</svg>
