<svg width="17" height="16" viewBox="0 0 17 16" fill="none" xmlns="http://www.w3.org/2000/svg">
<path d="M13.5 3.66675L13.0869 10.3501C12.9813 12.0577 12.9285 12.9115 12.5005 13.5253C12.2889 13.8288 12.0165 14.0849 11.7005 14.2774C11.0614 14.6667 10.206 14.6667 8.49513 14.6667C6.78208 14.6667 5.92553 14.6667 5.28603 14.2767C4.96987 14.0839 4.69733 13.8273 4.48579 13.5233C4.05792 12.9085 4.0063 12.0535 3.90307 10.3435L3.5 3.66675" stroke="#EE4F16" stroke-linecap="round"/>
<path d="M2.5 3.66659H14.5M11.2038 3.66659L10.7487 2.72774C10.4464 2.10409 10.2952 1.79227 10.0345 1.59779C9.97667 1.55465 9.9154 1.51628 9.85133 1.48305C9.5626 1.33325 9.21607 1.33325 8.523 1.33325C7.81253 1.33325 7.45733 1.33325 7.16379 1.48933C7.09873 1.52393 7.03665 1.56385 6.97819 1.6087C6.71443 1.81105 6.56709 2.13429 6.27241 2.78076L5.86861 3.66659" stroke="#EE4F16" stroke-linecap="round"/>
<path d="M6.83301 11V7" stroke="#EE4F16" stroke-linecap="round"/>
<path d="M10.167 11V7" stroke="#EE4F16" stroke-linecap="round"/>
</svg>
