<svg width="22" height="22" viewBox="0 0 22 22" fill="none" xmlns="http://www.w3.org/2000/svg">
<path d="M5.11918 4.88021C6.86481 4.72927 7.7934 5.35599 8.15762 5.69724C9.02407 6.1342 9.9796 6.36551 10.95 6.37318C11.9497 6.37129 12.9324 6.11375 13.8047 5.62505C14.2115 5.28052 15.1303 4.73911 16.7643 4.88021C16.921 4.89331 17.0764 4.84385 17.1967 4.74265C17.317 4.64145 17.3923 4.49675 17.4062 4.34018C17.42 4.18361 17.3714 4.02792 17.2708 3.90714C17.1702 3.78636 17.0258 3.71033 16.8693 3.69568C15.6472 3.5366 14.4081 3.81184 13.3682 4.47333L14.0147 2.44224C14.0541 2.31707 14.0635 2.18437 14.0421 2.05489C14.0207 1.92542 13.969 1.80281 13.8914 1.69702C13.8137 1.59123 13.7122 1.50524 13.5951 1.44601C13.478 1.38679 13.3485 1.356 13.2173 1.35615H8.6695C8.5364 1.35569 8.40513 1.3871 8.28667 1.44777C8.16821 1.50843 8.06599 1.59658 7.98857 1.70484C7.91115 1.8131 7.86078 1.93832 7.84167 2.07004C7.82255 2.20175 7.83526 2.33613 7.87871 2.46193L8.5809 4.51927C7.91481 4.05005 6.76965 3.54146 5.01746 3.69568C4.86039 3.70916 4.7151 3.7845 4.61357 3.90511C4.51203 4.02572 4.46257 4.18172 4.47606 4.3388C4.48955 4.49588 4.56488 4.64117 4.68549 4.7427C4.8061 4.84423 4.9621 4.8937 5.11918 4.88021Z" fill="#E9AD05"/>
<path d="M19.7832 17.2505L18.7135 15.016C18.4543 14.4725 18.3262 13.8757 18.3394 13.2737C18.3788 11.4624 18.0802 7.28538 14.6743 6.14679C13.5764 6.8581 12.2976 7.23959 10.9894 7.24601C9.66143 7.23413 8.36081 6.86706 7.22256 6.18288C3.91177 7.36741 3.62302 11.4821 3.6624 13.2737C3.6745 13.876 3.54526 14.4727 3.28506 15.016L2.21865 17.2505C2.04953 17.6037 1.97269 17.9941 1.99533 18.385C2.01797 18.776 2.13933 19.1548 2.34809 19.4861C2.55685 19.8175 2.84619 20.0905 3.18907 20.2796C3.53196 20.4688 3.9172 20.568 4.30881 20.5679H17.6897C18.0815 20.5681 18.4669 20.469 18.8099 20.28C19.153 20.0909 19.4426 19.818 19.6516 19.4867C19.8607 19.1555 19.9824 18.7766 20.0054 18.3856C20.0284 17.9945 19.952 17.604 19.7832 17.2505ZM11.5644 16.8989H11.4349V17.9849C11.4349 18.1155 11.383 18.2407 11.2907 18.333C11.1984 18.4253 11.0732 18.4771 10.9427 18.4771C10.8122 18.4771 10.687 18.4253 10.5947 18.333C10.5024 18.2407 10.4505 18.1155 10.4505 17.9849V16.8989H9.01192C8.88138 16.8989 8.75619 16.847 8.66389 16.7547C8.57159 16.6624 8.51973 16.5372 8.51973 16.4067C8.51973 16.2761 8.57159 16.1509 8.66389 16.0586C8.75619 15.9663 8.88138 15.9145 9.01192 15.9145H11.5644C11.7811 15.9145 11.9889 15.8284 12.1421 15.6752C12.2953 15.522 12.3814 15.3141 12.3814 15.0974C12.3814 14.8808 12.2953 14.6729 12.1421 14.5197C11.9889 14.3665 11.7811 14.2804 11.5644 14.2804H10.4192C9.91541 14.2804 9.43223 14.0803 9.07598 13.724C8.71974 13.3678 8.5196 12.8846 8.5196 12.3808C8.5196 11.877 8.71974 11.3938 9.07598 11.0376C9.43223 10.6813 9.91541 10.4812 10.4192 10.4812H10.4503V9.27907C10.4503 9.14854 10.5021 9.02334 10.5944 8.93104C10.6867 8.83874 10.8119 8.78688 10.9425 8.78688C11.073 8.78688 11.1982 8.83874 11.2905 8.93104C11.3828 9.02334 11.4347 9.14854 11.4347 9.27907V10.4814H12.645C12.7096 10.4814 12.7736 10.4941 12.8333 10.5188C12.893 10.5436 12.9473 10.5798 12.993 10.6255C13.0387 10.6712 13.0749 10.7255 13.0997 10.7852C13.1244 10.8449 13.1371 10.9089 13.1371 10.9735C13.1371 11.0382 13.1244 11.1022 13.0997 11.1619C13.0749 11.2216 13.0387 11.2759 12.993 11.3216C12.9473 11.3673 12.893 11.4035 12.8333 11.4283C12.7736 11.453 12.7096 11.4657 12.645 11.4657H10.4192C10.1765 11.4657 9.94368 11.5622 9.77204 11.7338C9.6004 11.9054 9.50398 12.1382 9.50398 12.381C9.50398 12.6237 9.6004 12.8565 9.77204 13.0281C9.94368 13.1998 10.1765 13.2962 10.4192 13.2962H11.5644C12.0421 13.2962 12.5003 13.486 12.8382 13.8238C13.176 14.1617 13.3658 14.6199 13.3658 15.0976C13.3658 15.5754 13.176 16.0336 12.8382 16.3714C12.5003 16.7092 12.0421 16.8989 11.5644 16.8989Z" fill="#E9AD05"/>
</svg>
