<svg width="21" height="22" viewBox="0 0 21 22" fill="none" xmlns="http://www.w3.org/2000/svg">
<path d="M3.28125 3.125C3.1072 3.125 2.94028 3.19414 2.81721 3.31721C2.69414 3.44028 2.625 3.6072 2.625 3.78125C2.625 3.9553 2.69414 4.12222 2.81721 4.24529C2.94028 4.36836 3.1072 4.4375 3.28125 4.4375H4.30303L2.01206 10.4376C1.98345 10.5124 1.96877 10.5918 1.96875 10.6719C1.96875 12.363 3.23072 13.625 4.92188 13.625C6.61303 13.625 7.875 12.363 7.875 10.6719C7.87498 10.5918 7.8603 10.5124 7.83169 10.4376L5.54203 4.4375H9.84375V14.9375H5.90625C5.64771 14.9375 5.3917 14.9884 5.15284 15.0874C4.91398 15.1863 4.69695 15.3313 4.51413 15.5141C4.33132 15.6969 4.1863 15.914 4.08736 16.1528C3.98842 16.3917 3.9375 16.6477 3.9375 16.9062C3.9375 17.1648 3.98842 17.4208 4.08736 17.6597C4.1863 17.8985 4.33132 18.1156 4.51413 18.2984C4.69695 18.4812 4.91398 18.6262 5.15284 18.7251C5.3917 18.8241 5.64771 18.875 5.90625 18.875H15.0938C15.6159 18.875 16.1167 18.6676 16.4859 18.2984C16.8551 17.9292 17.0625 17.4284 17.0625 16.9062C17.0625 16.3841 16.8551 15.8833 16.4859 15.5141C16.1167 15.1449 15.6159 14.9375 15.0938 14.9375H11.1562V4.4375H15.3786L13.1657 10.4448C13.1388 10.5175 13.125 10.5944 13.125 10.6719C13.125 12.363 14.387 13.625 16.0781 13.625C17.7693 13.625 19.0312 12.363 19.0312 10.6719C19.0312 10.5944 19.0174 10.5175 18.9906 10.4448L16.7777 4.4375H17.7188C17.8928 4.4375 18.0597 4.36836 18.1828 4.24529C18.3059 4.12222 18.375 3.9553 18.375 3.78125C18.375 3.6072 18.3059 3.44028 18.1828 3.31721C18.0597 3.19414 17.8928 3.125 17.7188 3.125H3.28125ZM4.92188 6.49616L6.26588 10.0156H3.57788L4.92188 6.49616ZM14.7223 10.0156L16.0781 6.33603L17.4339 10.0156H14.7223Z" fill="#E9AD05"/>
</svg>
