<svg width="22" height="22" viewBox="0 0 22 22" fill="none" xmlns="http://www.w3.org/2000/svg">
<path d="M18.7936 5.74157L15.5953 7.02152L7.72031 3.87152L9.63656 3.10397C10.5128 2.75343 11.4903 2.75343 12.3666 3.10397L18.4114 5.52212C18.5484 5.57667 18.6771 5.65124 18.7936 5.74157ZM11.0026 8.85797L14.182 7.58537L6.30701 4.43537L3.59171 5.52212C3.45472 5.57667 3.32606 5.65019 3.20951 5.74052L11.0026 8.85797ZM2.60156 6.98477C2.60156 6.86857 2.61381 6.75517 2.63831 6.64457L10.4766 9.77987V13.3152C10.1302 14.071 9.95115 14.8926 9.95156 15.7239C9.95156 16.5849 10.1406 17.4008 10.4766 18.1337V19.1186C10.1903 19.078 9.91026 19.0031 9.63656 18.8939L3.59171 16.4757C3.29939 16.3588 3.0488 16.157 2.87231 15.8963C2.69582 15.6355 2.60151 15.3279 2.60156 15.0131V6.98477ZM19.4016 6.98477V11.2688C18.3677 10.4143 17.0678 9.94781 15.7266 9.94997C14.9401 9.94982 14.1619 10.1103 13.4397 10.4216C12.7175 10.7329 12.0665 11.1884 11.5266 11.7602V9.77987L19.3648 6.64457C19.3893 6.75517 19.4016 6.86857 19.4016 6.98477ZM15.7266 20.45C16.9797 20.45 18.1815 19.9522 19.0676 19.066C19.9538 18.1799 20.4516 16.9781 20.4516 15.725C20.4516 14.4718 19.9538 13.27 19.0676 12.3839C18.1815 11.4978 16.9797 11 15.7266 11C14.4734 11 13.2716 11.4978 12.3855 12.3839C11.4994 13.27 11.0016 14.4718 11.0016 15.725C11.0016 16.9781 11.4994 18.1799 12.3855 19.066C13.2716 19.9522 14.4734 20.45 15.7266 20.45ZM14.6766 16.5566L17.4549 13.7783C17.5533 13.6797 17.6869 13.6243 17.8262 13.6242C17.9655 13.6241 18.0992 13.6793 18.1977 13.7777C18.2963 13.8762 18.3518 14.0098 18.3519 14.1491C18.352 14.2884 18.2967 14.422 18.1983 14.5206L15.0483 17.6706C14.9995 17.7195 14.9416 17.7583 14.8778 17.7848C14.814 17.8112 14.7456 17.8249 14.6766 17.8249C14.6075 17.8249 14.5391 17.8112 14.4753 17.7848C14.4116 17.7583 14.3536 17.7195 14.3049 17.6706L13.2549 16.6206C13.1564 16.522 13.1012 16.3884 13.1013 16.2491C13.1014 16.1098 13.1568 15.9762 13.2554 15.8777C13.354 15.7793 13.4876 15.7241 13.6269 15.7242C13.7663 15.7243 13.8998 15.7797 13.9983 15.8783L14.6766 16.5566Z" fill="#38D6C3"/>
</svg>
