<svg width="22" height="22" viewBox="0 0 22 22" fill="none" xmlns="http://www.w3.org/2000/svg">
<path d="M13.0094 2.99963C12.1353 1.41807 9.86203 1.41807 8.9879 2.99963L2.10187 15.4677C1.25662 16.9981 2.36437 18.875 4.11262 18.875H17.8853C19.6336 18.875 20.7413 16.9981 19.8954 15.4677L13.0094 2.99963ZM11.819 14.9375C11.819 15.155 11.7325 15.3637 11.5787 15.5175C11.4249 15.6714 11.2162 15.7578 10.9987 15.7578C10.7811 15.7578 10.5724 15.6714 10.4186 15.5175C10.2648 15.3637 10.1783 15.155 10.1783 14.9375C10.1783 14.7199 10.2648 14.5113 10.4186 14.3574C10.5724 14.2036 10.7811 14.1172 10.9987 14.1172C11.2162 14.1172 11.4249 14.2036 11.5787 14.3574C11.7325 14.5113 11.819 14.7199 11.819 14.9375ZM10.9987 6.40623C11.1727 6.40623 11.3396 6.47537 11.4627 6.59844C11.5858 6.72151 11.6549 6.88843 11.6549 7.06248V12.3125C11.6549 12.4865 11.5858 12.6534 11.4627 12.7765C11.3396 12.8996 11.1727 12.9687 10.9987 12.9687C10.8246 12.9687 10.6577 12.8996 10.5346 12.7765C10.4115 12.6534 10.3424 12.4865 10.3424 12.3125V7.06248C10.3424 6.88843 10.4115 6.72151 10.5346 6.59844C10.6577 6.47537 10.8246 6.40623 10.9987 6.40623Z" fill="#CA4040"/>
</svg>
