<svg width="21" height="22" viewBox="0 0 21 22" fill="none" xmlns="http://www.w3.org/2000/svg">
<path d="M1.72193 10.0157L3.59093 6.91555C3.72773 6.69044 3.91998 6.50418 4.14932 6.37457C4.37865 6.24497 4.63739 6.17636 4.90081 6.1753H6.36818V5.95743C6.36816 5.64279 6.4303 5.33124 6.55102 5.04068C6.67175 4.75012 6.84869 4.48628 7.07168 4.2643C7.52246 3.81512 8.13282 3.5628 8.76918 3.56255H17.5043C17.9797 3.55941 18.4453 3.6982 18.8414 3.96116C19.2374 4.22413 19.5461 4.59931 19.7277 5.03868C19.8479 5.32996 19.9085 5.64234 19.9062 5.95743V13.7957C19.9057 14.1638 19.7718 14.5193 19.5294 14.7963C19.287 15.0733 18.9524 15.2531 18.5876 15.3024C18.5916 15.3812 18.5916 15.4596 18.5876 15.5378C18.5907 15.9089 18.5188 16.2768 18.3763 16.6195C18.2337 16.9622 18.0235 17.2725 17.7581 17.5319C17.4976 17.803 17.1859 18.0195 16.841 18.169C16.4961 18.3185 16.1249 18.3979 15.7491 18.4026C14.9989 18.3957 14.2812 18.0955 13.7497 17.5661C13.2187 17.0375 12.9169 16.3212 12.9097 15.5719C12.9052 15.4997 12.9052 15.4272 12.9097 15.3549H8.08931C8.0938 15.4272 8.0938 15.4997 8.08931 15.5719C8.09254 15.9432 8.02073 16.3113 7.87819 16.6541C7.73564 16.9969 7.52531 17.3074 7.25981 17.5669C6.99918 17.8382 6.68716 18.0549 6.34195 18.2044C5.99673 18.3538 5.62522 18.4331 5.24906 18.4376C4.49889 18.4307 3.7812 18.1305 3.24968 17.6011C2.71897 17.0723 2.41756 16.356 2.41056 15.6069C2.40603 15.5344 2.40603 15.4616 2.41056 15.3891H1.74906C1.57646 15.3866 1.41159 15.3171 1.28929 15.1953C1.16699 15.0735 1.09685 14.9089 1.09368 14.7363V12.2198C1.09368 11.4411 1.31156 10.6781 1.72193 10.0157ZM14.2292 15.5369C14.2289 15.7369 14.269 15.935 14.347 16.1191C14.4251 16.3033 14.5394 16.4698 14.6833 16.6088C14.9744 16.8854 15.3606 17.0396 15.7622 17.0396C16.1637 17.0396 16.55 16.8854 16.8411 16.6088C16.9829 16.4672 17.0953 16.2989 17.1716 16.1135C17.2479 15.9282 17.2866 15.7295 17.2856 15.5291C17.2897 15.3221 17.2478 15.1168 17.1631 14.9279C17.0476 14.6541 16.8489 14.4231 16.5961 14.2656C16.3374 14.0946 16.0328 14.0067 15.7228 14.0136C15.4271 14.0136 15.1383 14.1011 14.8933 14.2656C14.6422 14.4257 14.4444 14.6558 14.3246 14.9279C14.2388 15.1161 14.1933 15.3217 14.1942 15.5291L14.2292 15.5369ZM11.3907 11.1829H15.7569C15.9881 11.1827 16.2098 11.091 16.3735 10.9279C16.5373 10.7648 16.6299 10.5435 16.6311 10.3123C16.6313 10.1976 16.6088 10.0841 16.565 9.97811C16.5212 9.87216 16.4569 9.77592 16.3757 9.69492C16.2945 9.61393 16.1982 9.54978 16.0921 9.50617C15.9861 9.46255 15.8725 9.44034 15.7578 9.4408H11.3907C11.1595 9.44126 10.9379 9.53317 10.7743 9.69646C10.6107 9.85975 10.5184 10.0811 10.5174 10.3123C10.5173 10.4269 10.5398 10.5404 10.5837 10.6462C10.6276 10.7521 10.692 10.8482 10.7731 10.9291C10.8542 11.01 10.9506 11.0741 11.0566 11.1176C11.1626 11.1612 11.2761 11.1834 11.3907 11.1829ZM11.3907 8.18693H15.7569C15.9881 8.1867 16.2098 8.09501 16.3735 7.93189C16.5373 7.76876 16.6299 7.54746 16.6311 7.3163C16.6312 7.20172 16.6086 7.08824 16.5648 6.98238C16.5209 6.87653 16.4565 6.78039 16.3754 6.69949C16.2942 6.61859 16.1979 6.55452 16.0919 6.51096C15.9859 6.4674 15.8724 6.44522 15.7578 6.44568H11.3907C11.1597 6.44614 10.9382 6.53793 10.7746 6.70103C10.611 6.86413 10.5186 7.0853 10.5174 7.3163C10.5173 7.43089 10.5398 7.54437 10.5837 7.65022C10.6276 7.75607 10.692 7.85221 10.7731 7.93312C10.8542 8.01402 10.9506 8.07809 11.0566 8.12165C11.1626 8.1652 11.2761 8.18739 11.3907 8.18693ZM3.74843 15.5369C3.74829 15.737 3.78851 15.9351 3.86669 16.1192C3.94487 16.3034 4.0594 16.4699 4.20343 16.6088C4.49449 16.8851 4.88052 17.0392 5.28187 17.0392C5.68322 17.0392 6.06925 16.8851 6.36031 16.6088C6.50236 16.4673 6.61487 16.299 6.69133 16.1136C6.76779 15.9283 6.80666 15.7296 6.80568 15.5291C6.8094 15.2118 6.70785 14.9022 6.51693 14.6488C6.30168 14.3627 5.99281 14.1588 5.64368 14.0739H5.42493C5.38495 14.0644 5.34329 14.0644 5.30331 14.0739H5.12831C4.86318 14.1046 4.61031 14.2034 4.39506 14.3618C4.17893 14.5202 4.01006 14.7337 3.90593 14.9804C3.81931 15.1686 3.77468 15.3742 3.77468 15.5807L3.74843 15.5369Z" fill="#6255FA"/>
<path d="M5.28375 14.0047C5.32401 13.995 5.36599 13.995 5.40625 14.0047H5.28375Z" fill="#6255FA"/>
</svg>
