<svg width="16" height="16" viewBox="0 0 16 16" fill="none" xmlns="http://www.w3.org/2000/svg">
<path d="M5 8.00001H9M5 5.33334H7" stroke="#312F27" stroke-linecap="round" stroke-linejoin="round"/>
<path d="M5.66663 13.3333C6.36688 13.9131 7.20963 14.2825 8.17563 14.3459C8.93676 14.3958 9.73136 14.3957 10.491 14.3459C10.7525 14.3287 11.0376 14.2671 11.2832 14.1673C11.5563 14.0563 11.693 14.0008 11.7624 14.0092C11.8318 14.0176 11.9326 14.0909 12.134 14.2375C12.4892 14.496 12.9367 14.6817 13.6003 14.6657C13.9358 14.6577 14.1036 14.6536 14.1787 14.5273C14.2538 14.4009 14.1603 14.2259 13.9732 13.8761C13.7137 13.3908 13.5493 12.8353 13.7984 12.3901C14.2275 11.7543 14.5919 11.0014 14.6452 10.1882C14.6738 9.75128 14.6738 9.29874 14.6452 8.86181C14.6097 8.31994 14.4782 7.80488 14.2674 7.33334" stroke="#312F27" stroke-linecap="round" stroke-linejoin="round"/>
<path d="M8.23004 11.6579C10.6004 11.5017 12.4886 9.60461 12.6439 7.22294C12.6743 6.75688 12.6743 6.27422 12.6439 5.80814C12.4886 3.42647 10.6004 1.52935 8.23004 1.37324C7.42137 1.31999 6.57706 1.3201 5.77003 1.37324C3.39966 1.52935 1.51154 3.42647 1.35617 5.80814C1.32577 6.27422 1.32577 6.75688 1.35617 7.22294C1.41276 8.09041 1.79999 8.89354 2.25585 9.57174C2.52055 10.0465 2.34586 10.6391 2.07016 11.1567C1.87137 11.5299 1.77198 11.7165 1.85179 11.8513C1.93159 11.9861 2.10985 11.9904 2.46638 11.999C3.17145 12.016 3.64689 11.8179 4.02429 11.5423C4.23833 11.3859 4.34536 11.3077 4.41912 11.2987C4.49288 11.2897 4.63804 11.3489 4.92831 11.4674C5.1892 11.5739 5.49212 11.6395 5.77003 11.6579C6.57706 11.711 7.42137 11.7111 8.23004 11.6579Z" stroke="#312F27" stroke-linejoin="round"/>
</svg>
