<svg width="17" height="16" viewBox="0 0 17 16" fill="none" xmlns="http://www.w3.org/2000/svg">
<path d="M12.4997 10V6C12.4997 4.11438 12.4997 3.17157 11.9139 2.58579C11.3281 2 10.3853 2 8.49967 2H5.83301C3.94739 2 3.00458 2 2.41879 2.58579C1.83301 3.17157 1.83301 4.11438 1.83301 6V10C1.83301 11.8856 1.83301 12.8284 2.41879 13.4142C3.00458 14 3.94739 14 5.83301 14H13.833" stroke="#141B34" stroke-linecap="round" stroke-linejoin="round"/>
<path d="M4.5 5.33325H9.83333" stroke="#141B34" stroke-linecap="round" stroke-linejoin="round"/>
<path d="M4.5 8H9.83333" stroke="#141B34" stroke-linecap="round" stroke-linejoin="round"/>
<path d="M4.5 10.6667H7.16667" stroke="#141B34" stroke-linecap="round" stroke-linejoin="round"/>
<path d="M12.5 5.33325H13.1667C14.1095 5.33325 14.5809 5.33325 14.8738 5.62615C15.1667 5.91904 15.1667 6.39045 15.1667 7.33325V12.6666C15.1667 13.403 14.5697 13.9999 13.8333 13.9999C13.0969 13.9999 12.5 13.403 12.5 12.6666V5.33325Z" stroke="#141B34" stroke-linecap="round" stroke-linejoin="round"/>
</svg>
