<svg width="17" height="16" viewBox="0 0 17 16" fill="none" xmlns="http://www.w3.org/2000/svg">
<path d="M3.16699 4.66675C3.16699 3.72394 3.16699 3.25253 3.45989 2.95964C3.75278 2.66675 4.22419 2.66675 5.16699 2.66675C6.1098 2.66675 6.58121 2.66675 6.8741 2.95964C7.16699 3.25253 7.16699 3.72394 7.16699 4.66675V11.3334C7.16699 12.2762 7.16699 12.7476 6.8741 13.0405C6.58121 13.3334 6.1098 13.3334 5.16699 13.3334C4.22419 13.3334 3.75278 13.3334 3.45989 13.0405C3.16699 12.7476 3.16699 12.2762 3.16699 11.3334V4.66675Z" stroke="#141B34"/>
<path d="M9.83301 4.66675C9.83301 3.72394 9.83301 3.25253 10.1259 2.95964C10.4188 2.66675 10.8902 2.66675 11.833 2.66675C12.7758 2.66675 13.2472 2.66675 13.5401 2.95964C13.833 3.25253 13.833 3.72394 13.833 4.66675V11.3334C13.833 12.2762 13.833 12.7476 13.5401 13.0405C13.2472 13.3334 12.7758 13.3334 11.833 13.3334C10.8902 13.3334 10.4188 13.3334 10.1259 13.0405C9.83301 12.7476 9.83301 12.2762 9.83301 11.3334V4.66675Z" stroke="#141B34"/>
</svg>
