<svg width="21" height="22" viewBox="0 0 21 22" fill="none" xmlns="http://www.w3.org/2000/svg">
<path d="M9.1875 18.875C9.1875 18.875 7.875 18.875 7.875 17.5625C7.875 16.25 9.1875 12.3125 14.4375 12.3125C19.6875 12.3125 21 16.25 21 17.5625C21 18.875 19.6875 18.875 19.6875 18.875H9.1875ZM14.4375 11C15.4818 11 16.4833 10.5852 17.2217 9.84673C17.9602 9.10831 18.375 8.10679 18.375 7.0625C18.375 6.01821 17.9602 5.01669 17.2217 4.27827C16.4833 3.53984 15.4818 3.125 14.4375 3.125C13.3932 3.125 12.3917 3.53984 11.6533 4.27827C10.9148 5.01669 10.5 6.01821 10.5 7.0625C10.5 8.10679 10.9148 9.10831 11.6533 9.84673C12.3917 10.5852 13.3932 11 14.4375 11Z" fill="#6255FA"/>
<path fill-rule="evenodd" clip-rule="evenodd" d="M6.846 18.875C6.65143 18.4653 6.55439 18.016 6.5625 17.5625C6.5625 15.7841 7.455 13.9531 9.1035 12.68C8.28068 12.4265 7.42343 12.3025 6.5625 12.3125C1.3125 12.3125 0 16.25 0 17.5625C0 18.875 1.3125 18.875 1.3125 18.875H6.846Z" fill="#6255FA"/>
<path d="M5.90625 11C6.77649 11 7.61109 10.6543 8.22644 10.0389C8.8418 9.42359 9.1875 8.58899 9.1875 7.71875C9.1875 6.84851 8.8418 6.01391 8.22644 5.39856C7.61109 4.7832 6.77649 4.4375 5.90625 4.4375C5.03601 4.4375 4.20141 4.7832 3.58606 5.39856C2.9707 6.01391 2.625 6.84851 2.625 7.71875C2.625 8.58899 2.9707 9.42359 3.58606 10.0389C4.20141 10.6543 5.03601 11 5.90625 11Z" fill="#6255FA"/>
</svg>
