<svg width="21" height="22" viewBox="0 0 21 22" fill="none" xmlns="http://www.w3.org/2000/svg">
<path fill-rule="evenodd" clip-rule="evenodd" d="M3.37698 6.59C3.39273 7.38695 2.95908 8.46425 2.39523 9.02705C1.87202 9.55076 1.57812 10.2608 1.57812 11.0011C1.57812 11.7413 1.87202 12.4513 2.39523 12.975C2.95173 13.5294 3.36123 14.4913 3.37698 15.2767C3.39168 15.9718 3.66363 16.6627 4.19388 17.1919C4.68309 17.6821 5.33753 17.9722 6.02928 18.0056C6.85983 18.0476 7.94763 18.5306 8.53563 19.1186C9.0593 19.6415 9.76908 19.9352 10.5091 19.9352C11.2491 19.9352 11.9589 19.6415 12.4826 19.1186C13.0706 18.5306 14.1584 18.0476 14.9889 18.0056C15.6807 17.9722 16.3351 17.6821 16.8243 17.1919C17.3343 16.6825 17.6268 15.9952 17.6402 15.2746C17.6559 14.4913 18.0602 13.5358 18.6156 12.9814C19.1408 12.4578 19.4365 11.7471 19.4377 11.0055C19.4389 10.2639 19.1455 9.55226 18.6219 9.02705C18.0591 8.4653 17.6244 7.38695 17.6412 6.59105C17.6491 6.21527 17.5808 5.84179 17.4404 5.49313C17.3 5.14448 17.0904 4.82788 16.8243 4.56245C16.5485 4.28592 16.2176 4.07055 15.8531 3.93035C15.4886 3.79015 15.0986 3.72826 14.7086 3.7487C13.9589 3.7865 13.0128 3.4232 12.4826 2.8919C11.9589 2.36869 11.2489 2.0748 10.5086 2.0748C9.76829 2.0748 9.05829 2.36869 8.53458 2.8919C8.00538 3.42215 7.05828 3.7865 6.30858 3.7487C5.91873 3.72841 5.52898 3.79037 5.16464 3.93057C4.80031 4.07077 4.46956 4.28606 4.19388 4.56245C3.92789 4.82776 3.71838 5.14418 3.57799 5.49265C3.43759 5.84111 3.36921 6.2144 3.37698 6.59ZM13.6964 7.4573C13.817 7.52422 13.9232 7.61425 14.009 7.72224C14.0948 7.83023 14.1585 7.95407 14.1964 8.08668C14.2344 8.21929 14.2458 8.35808 14.2301 8.49511C14.2144 8.63214 14.1718 8.76473 14.1048 8.8853L11.1984 14.1164C11.1231 14.2589 11.0161 14.3821 10.8855 14.4766C10.6958 14.6138 10.4657 14.6837 10.2316 14.6752C9.99764 14.6666 9.77321 14.5801 9.59403 14.4293L6.69708 12.112C6.58939 12.0258 6.49973 11.9192 6.43321 11.7984C6.3667 11.6776 6.32464 11.5448 6.30943 11.4077C6.29422 11.2706 6.30616 11.1319 6.34456 10.9994C6.38297 10.867 6.4471 10.7433 6.53328 10.6357C6.61946 10.528 6.726 10.4383 6.84684 10.3718C6.96767 10.3053 7.10042 10.2632 7.2375 10.248C7.37459 10.2328 7.51333 10.2447 7.6458 10.2831C7.77828 10.3215 7.90189 10.3857 8.00958 10.4719L9.95523 12.029L12.2684 7.8647C12.3354 7.74418 12.4255 7.63804 12.5335 7.55235C12.6415 7.46665 12.7654 7.40307 12.898 7.36524C13.0306 7.32741 13.1694 7.31606 13.3063 7.33186C13.4433 7.34766 13.5759 7.39028 13.6964 7.4573Z" fill="#38D6C3"/>
</svg>
