<svg width="16" height="16" viewBox="0 0 16 16" fill="none" xmlns="http://www.w3.org/2000/svg">
<path d="M10.9253 2L11.5939 2.65049C11.8925 2.9411 12.0419 3.08641 11.9893 3.20987C11.9367 3.33333 11.7255 3.33333 11.3031 3.33333H6.12915C3.48031 3.33333 1.33301 5.42267 1.33301 8C1.33301 8.99147 1.65079 9.9108 2.19267 10.6667" stroke="#141B34" stroke-linecap="round" stroke-linejoin="round"/>
<path d="M5.07437 13.9997L4.40583 13.3492C4.10716 13.0585 3.95782 12.9133 4.01038 12.7898C4.06294 12.6663 4.27413 12.6663 4.69652 12.6663H9.87054C12.5193 12.6663 14.6667 10.577 14.6667 7.99967C14.6667 7.00821 14.3489 6.08889 13.807 5.33301" stroke="#141B34" stroke-linecap="round" stroke-linejoin="round"/>
<path d="M6 8H10" stroke="#141B34" stroke-linecap="round" stroke-linejoin="round"/>
</svg>
