<svg width="16" height="16" viewBox="0 0 16 16" fill="none" xmlns="http://www.w3.org/2000/svg">
<path d="M10.9256 2L11.5942 2.65049C11.8929 2.9411 12.0422 3.08641 11.9896 3.20987C11.9371 3.33333 11.7259 3.33333 11.3035 3.33333H6.12952C3.48068 3.33333 1.33337 5.42267 1.33337 8C1.33337 8.99147 1.65116 9.9108 2.19304 10.6667" stroke="#312F27" stroke-linecap="round" stroke-linejoin="round"/>
<path d="M5.07437 14L4.40583 13.3495C4.10716 13.0589 3.95782 12.9136 4.01038 12.7901C4.06294 12.6667 4.27413 12.6667 4.69652 12.6667H9.87054C12.5193 12.6667 14.6667 10.5773 14.6667 8.00001C14.6667 7.00854 14.3489 6.08923 13.807 5.33334" stroke="#312F27" stroke-linecap="round" stroke-linejoin="round"/>
</svg>
