<svg width="24" height="24" viewBox="0 0 24 24" fill="none" xmlns="http://www.w3.org/2000/svg">
<g clip-path="url(#clip0_1888_1806)">
<mask id="mask0_1888_1806" style="mask-type:luminance" maskUnits="userSpaceOnUse" x="0" y="0" width="24" height="24">
<path d="M24 0H0V24H24V0Z" fill="white"/>
</mask>
<g mask="url(#mask0_1888_1806)">
<path fill-rule="evenodd" clip-rule="evenodd" d="M10.4521 1.31115C11.2522 0.333786 12.7469 0.333783 13.5471 1.31115L14.5389 2.5226L16.0036 1.96937C17.1853 1.52305 18.4796 2.27036 18.6839 3.51688L18.9372 5.06195L20.4823 5.31518C21.7288 5.51948 22.4761 6.81387 22.0298 7.99554L21.4765 9.46022L22.688 10.4521C23.6653 11.2523 23.6653 12.7469 22.688 13.5471L21.4765 14.539L22.0298 16.0036C22.4761 17.1853 21.7288 18.4797 20.4823 18.684L18.9372 18.9372L18.684 20.4823C18.4796 21.7288 17.1853 22.4761 16.0036 22.0298L14.5389 21.4766L13.5471 22.688C12.7469 23.6654 11.2522 23.6654 10.4521 22.688L9.46022 21.4766L7.99553 22.0298C6.81386 22.4761 5.51948 21.7288 5.31518 20.4823L5.06194 18.9372L3.51687 18.684C2.27035 18.4797 1.52305 17.1853 1.96937 16.0036L2.5226 14.539L1.31115 13.5471C0.333785 12.7469 0.333781 11.2523 1.31115 10.4521L2.5226 9.46022L1.96937 7.99554C1.52304 6.81387 2.27036 5.51948 3.51688 5.31518L5.06194 5.06195L5.31518 3.51688C5.51948 2.27036 6.81387 1.52305 7.99553 1.96937L9.46022 2.5226L10.4521 1.31115ZM11.2071 16.2067L18.2071 9.20668L16.7929 7.79247L10.5 14.0854L7.20711 10.7925L5.79289 12.2067L9.79289 16.2067C9.98043 16.3943 10.2348 16.4996 10.5 16.4996C10.7652 16.4996 11.0196 16.3943 11.2071 16.2067Z" fill="#47B48E"/>
</g>
</g>
<defs>
<clipPath id="clip0_1888_1806">
<rect width="24" height="24" fill="white"/>
</clipPath>
</defs>
</svg>
